HIERARCHY
ROOT Hips
{
	OFFSET 0.000000 0.000000 0.000000 
	CHANNELS 6 Xposition Yposition Zposition Zrotation Yrotation Xrotation
	JOINT LeftUpLeg
	{
		OFFSET 1.363060 -1.794630 0.839290 
		CHANNELS 3 Zrotation Yrotation Xrotation
		JOINT LeftLeg
		{
			OFFSET 2.448110 -6.726130 0.000000 
			CHANNELS 3 Zrotation Yrotation Xrotation
			JOINT LeftFoot
			{
				OFFSET 2.562200 -7.039590 0.000000 
				CHANNELS 3 Zrotation Yrotation Xrotation
				JOINT LeftToeBase
				{
					OFFSET 0.157640 -0.433110 2.322550 
					CHANNELS 3 Zrotation Yrotation Xrotation
					End Site
					{
						OFFSET 0.000000 0.000000 0.000000 
					}
				}
			}
		}
	}
	JOINT RightUpLeg
	{
		OFFSET -1.305520 -1.794630 0.839290 
		CHANNELS 3 Zrotation Yrotation Xrotation
		JOINT RightLeg
		{
			OFFSET -2.542530 -6.985550 0.000000 
			CHANNELS 3 Zrotation Yrotation Xrotation
			JOINT RightFoot
			{
				OFFSET -2.568260 -7.056230 0.000000 
				CHANNELS 3 Zrotation Yrotation Xrotation
				JOINT RightToeBase
				{
					OFFSET -0.164730 -0.452590 2.363150 
					CHANNELS 3 Zrotation Yrotation Xrotation
					End Site
					{
						OFFSET 0.000000 0.000000 0.000000 
					}
				}
			}
		}
	}
	JOINT Spine
	{
		OFFSET 0.028270 2.035590 -0.193380 
		CHANNELS 3 Zrotation Yrotation Xrotation
		JOINT Spine1
		{
			OFFSET 0.056720 2.048850 -0.042750 
			CHANNELS 3 Zrotation Yrotation Xrotation
			JOINT Neck1
			{
				OFFSET -0.054170 1.746240 0.172020 
				CHANNELS 3 Zrotation Yrotation Xrotation
				JOINT Head
				{
					OFFSET 0.104070 1.761360 -0.123970 
					CHANNELS 3 Zrotation Yrotation Xrotation
					End Site
					{
						OFFSET 0.000000 0.000000 0.000000 
					}
				}
			}
			JOINT LeftArm
			{
				OFFSET 3.362410 1.200890 -0.311210 
				CHANNELS 3 Zrotation Yrotation Xrotation
				JOINT LeftForeArm
				{
					OFFSET 4.983000 -0.000000 -0.000000 
					CHANNELS 3 Zrotation Yrotation Xrotation
					JOINT LeftHand
					{
						OFFSET 3.483560 -0.000000 -0.000000 
						CHANNELS 3 Zrotation Yrotation Xrotation
						JOINT LeftHandIndex1
						{
							OFFSET 0.715260 -0.000000 -0.000000 
							CHANNELS 3 Zrotation Yrotation Xrotation
							End Site
							{
								OFFSET 0.000000 0.000000 0.000000 
							}
						}
					}
				}
			}
			JOINT RightArm
			{
				OFFSET -3.136600 1.374050 -0.404650 
				CHANNELS 3 Zrotation Yrotation Xrotation
				JOINT RightForeArm
				{
					OFFSET -5.241900 -0.000000 -0.000000 
					CHANNELS 3 Zrotation Yrotation Xrotation
					JOINT RightHand
					{
						OFFSET -3.444170 -0.000000 -0.000000 
						CHANNELS 3 Zrotation Yrotation Xrotation
						JOINT RightHandIndex1
						{
							OFFSET -0.622530 -0.000000 -0.000000 
							CHANNELS 3 Zrotation Yrotation Xrotation
							End Site
							{
								OFFSET 0.000000 0.000000 0.000000 
							}
						}
					}
				}
			}
		}
	}
}
MOTION
Frames: 13
Frame Time: 0.041667
6.114243 17.601804 -1.869535 62.075351 -86.800582 -65.911854 -17.990067 -0.839170 2.429155 0.604879 7.486778 18.233921 -1.520591 13.211002 -12.089544 0.006300 -0.511900 -1.406700 23.606990 -10.376948 6.781657 -1.314211 -7.021806 16.541647 -0.839048 -13.722694 -23.263548 -0.060400 -1.585200 4.360500 0.521311 1.043813 0.721552 2.798172 0.479427 6.274252 5.534897 4.782679 27.827874 1.461800 1.536400 21.786900 -80.556119 -4.552641 33.077182 9.658432 -23.561957 -2.504253 -0.035579 0.098079 -7.851093 -7.125000 0.000000 0.000000 67.040822 2.673082 19.344134 -12.154317 24.086777 -3.664557 1.269661 -0.177746 -6.661901 7.125000 0.000000 0.000000 
6.113206 17.600870 -1.869431 61.351641 -86.621636 -65.253997 -18.152091 -0.906910 2.461649 0.608575 7.515277 18.294615 -1.511707 13.163950 -12.087649 0.006600 -0.526100 -1.445800 23.319883 -10.783337 6.885492 -1.298651 -6.966287 16.407835 -0.848230 -13.519282 -23.160482 -0.058900 -1.566200 4.308100 0.519913 0.969423 0.743702 2.818873 0.436050 6.389824 5.489542 4.753202 27.814994 1.424500 1.528900 21.795100 -80.574808 -4.418852 33.054317 9.761201 -23.705367 -2.539341 -0.037722 0.096095 -8.052278 -7.125000 0.000000 0.000000 67.031144 2.651379 19.343187 -12.137874 24.065040 -3.649222 1.264344 -0.183729 -6.550227 7.125000 0.000000 0.000000 
6.119327 17.600974 -1.873166 60.581850 -86.607816 -64.509579 -18.106079 -0.900984 2.430107 0.612632 7.526020 18.327560 -1.505524 13.124679 -12.062217 0.006100 -0.502900 -1.381900 23.340753 -10.879969 6.963131 -1.282099 -6.917371 16.262663 -0.840025 -13.528714 -23.077399 -0.055000 -1.513800 4.163700 0.545194 0.933746 0.769458 2.859879 0.410942 6.482917 5.494333 4.842846 27.797199 1.457300 1.550000 21.823500 -80.566285 -4.539128 33.091639 9.760696 -23.700024 -2.538591 -0.035897 0.096947 -8.297827 -7.125000 0.000000 0.000000 66.928357 2.746852 19.442085 -12.155499 24.085078 -3.659720 1.267782 -0.173614 -6.609445 7.125000 0.000000 0.000000 
6.130531 17.600870 -1.879909 59.024134 -86.756063 -62.999024 -17.841684 -0.819026 2.421361 0.614713 7.507710 18.305419 -1.499123 13.071312 -11.984211 0.007800 -0.570600 -1.568000 23.678831 -10.683805 7.088321 -1.264761 -6.886629 16.144026 -0.816968 -13.794789 -23.114039 -0.057800 -1.551200 4.266800 0.589087 0.949262 0.786854 2.860756 0.420543 6.500636 5.456060 4.866060 27.713751 1.452400 1.546100 21.752300 -80.637220 -4.682157 33.039832 9.689363 -23.601691 -2.515777 -0.034649 0.099697 -8.200726 -7.125000 0.000000 0.000000 66.811914 2.812676 19.546122 -12.150875 24.080185 -3.660229 1.270403 -0.162172 -6.687558 7.125000 0.000000 0.000000 
6.134473 17.600870 -1.883229 57.797310 -86.821755 -61.839164 -17.708627 -0.749446 2.484679 0.611270 7.480479 18.244611 -1.501592 13.063719 -11.863557 0.012900 -0.734700 -2.019000 23.854614 -10.595320 7.255262 -1.248103 -6.848751 16.023299 -0.803404 -13.974121 -23.175839 -0.059300 -1.571500 4.322800 0.607734 0.958557 0.799192 2.796074 0.432711 6.539360 5.283714 4.829704 27.624379 1.311800 1.542200 21.667000 -80.673088 -4.795801 32.951012 9.523445 -23.383297 -2.460837 -0.035177 0.099209 -8.024884 -7.125000 0.000000 0.000000 66.835398 2.844066 19.325338 -12.097984 24.013567 -3.638268 1.267415 -0.165395 -6.401661 7.125000 0.000000 0.000000 
6.128663 17.602841 -1.884370 58.525815 -86.636298 -62.645965 -17.937630 -0.751653 2.620479 0.601257 7.462236 18.172695 -1.508104 13.104448 -11.863544 0.011300 -0.686600 -1.886900 23.574155 -10.754589 7.471209 -1.234590 -6.785691 15.876212 -0.809558 -13.921911 -23.186755 -0.055200 -1.515900 4.169500 0.591221 0.966585 0.821535 2.814815 0.429005 6.637464 5.167708 4.785672 27.571814 1.218400 1.532800 21.658700 -80.705486 -4.893661 32.792513 9.343717 -23.148407 -2.402147 -0.033114 0.096050 -7.767867 -7.125000 0.000000 0.000000 66.894308 2.940493 18.860628 -11.995675 23.879019 -3.599952 1.262376 -0.174170 -5.965597 7.125000 0.000000 0.000000 
6.122646 17.604709 -1.886237 59.527244 -86.419137 -63.714172 -18.204923 -0.786107 2.787083 0.588102 7.435124 18.076189 -1.502455 13.099174 -11.998363 0.004500 -0.431700 -1.186100 23.228428 -10.963814 7.649309 -1.223553 -6.724847 15.740445 -0.819993 -13.808660 -23.175715 -0.053200 -1.488400 4.093800 0.579305 0.962990 0.822085 2.929657 0.411880 6.682646 5.231190 4.669142 27.522393 1.278000 1.475000 21.625700 -80.761538 -4.617474 32.632831 9.464266 -23.319886 -2.443883 -0.030300 0.091281 -7.488265 -7.125000 0.000000 0.000000 66.848334 2.976935 18.668108 -11.853037 23.704138 -3.545920 1.257476 -0.174920 -5.781113 7.125000 0.000000 0.000000 
6.124721 17.606991 -1.887067 59.446810 -86.490977 -63.613397 -18.127406 -0.766384 2.829386 0.579428 7.394543 17.974975 -1.502829 13.106271 -12.036022 0.003100 -0.357600 -0.982500 23.338318 -10.900310 7.690036 -1.211871 -6.682352 15.608835 -0.811896 -13.876096 -23.159695 -0.049300 -1.432500 3.939700 0.599777 0.955939 0.769938 2.972484 0.411680 6.595515 5.340667 4.501993 27.447378 1.365300 1.396000 21.505800 -80.779730 -4.132358 32.640236 9.742415 -23.697802 -2.535126 -0.031237 0.084780 -7.513173 -7.125000 0.000000 0.000000 66.755308 2.847004 18.858475 -11.736954 23.577134 -3.498991 1.253323 -0.170980 -5.994041 7.125000 0.000000 0.000000 
6.132917 17.610830 -1.885719 59.125015 -86.547085 -63.250121 -18.066959 -0.778608 2.771342 0.576379 7.379703 17.935886 -1.516789 13.170837 -11.951955 0.005600 -0.484600 -1.331600 23.471548 -10.762519 7.770394 -1.192633 -6.608375 15.389689 -0.788165 -14.084941 -23.078530 -0.045700 -1.380400 3.796200 0.612170 0.937796 0.724657 2.957882 0.410853 6.495293 5.363741 4.359948 27.357967 1.380400 1.334600 21.389700 -80.773717 -3.942104 32.741141 9.810595 -23.789927 -2.555035 -0.033316 0.081903 -7.754873 -7.125000 0.000000 0.000000 66.725761 2.752749 18.962829 -11.682670 23.520041 -3.478504 1.251300 -0.173419 -6.188850 7.125000 0.000000 0.000000 
6.140179 17.613942 -1.883748 58.190172 -86.549879 -62.290385 -18.032815 -0.844159 2.746818 0.573791 7.371490 17.910116 -1.521916 13.195743 -11.920175 0.006000 -0.501500 -1.378000 23.569826 -10.662464 7.916912 -1.170047 -6.528091 15.157442 -0.761746 -14.330361 -23.012634 -0.044100 -1.354800 3.725600 0.633196 0.884370 0.764614 2.989077 0.376277 6.662430 5.284723 4.281521 27.226452 1.330200 1.301000 21.281000 -80.828570 -4.094097 32.700744 9.718657 -23.671167 -2.526072 -0.031950 0.084566 -7.802520 -7.125000 0.000000 0.000000 66.702999 2.916156 18.892743 -11.686462 23.524929 -3.489975 1.254321 -0.174687 -6.154581 7.125000 0.000000 0.000000 
6.146299 17.616017 -1.881050 57.047525 -86.699650 -61.105337 -17.837712 -0.861437 2.767983 0.565723 7.328593 17.806887 -1.524431 13.214088 -11.955472 0.003000 -0.351500 -0.965700 23.840708 -10.502697 7.973347 -1.157418 -6.494588 15.035406 -0.749715 -14.458247 -23.049928 -0.043700 -1.348500 3.708100 0.673964 0.853843 0.842746 3.015844 0.351009 6.975571 5.107355 4.236408 27.011507 1.203600 1.289500 21.080000 -80.936598 -4.300277 32.462016 9.665772 -23.605643 -2.513210 -0.030452 0.085613 -7.512161 -7.125000 0.000000 0.000000 66.622222 3.153762 18.924459 -11.704212 23.549315 -3.505553 1.258143 -0.168454 -6.187417 7.125000 0.000000 0.000000 
6.152316 17.617054 -1.874411 58.417714 -86.615704 -62.457307 -18.015508 -0.861288 2.813529 0.549888 7.288586 17.673401 -1.530753 13.262639 -12.005850 0.002100 -0.295100 -0.810800 23.642506 -10.552188 8.002782 -1.155182 -6.454249 14.940533 -0.758471 -14.342442 -23.002598 -0.048300 -1.418700 3.901500 0.651148 0.867103 0.874169 2.993172 0.353116 7.109329 4.911029 4.120834 26.826660 1.058300 1.246200 20.938200 -80.976307 -4.395621 32.264125 9.611122 -23.532066 -2.496187 -0.031060 0.083007 -7.212125 -7.125000 0.000000 0.000000 66.596893 3.242007 18.833883 -11.709498 23.556307 -3.512440 1.259973 -0.163692 -6.169212 7.125000 0.000000 0.000000 
6.160720 17.617988 -1.865696 61.721567 -86.295477 -65.838477 -18.540170 -0.845293 2.921946 0.531821 7.268131 17.561866 -1.548780 13.378095 -12.032584 0.005400 -0.475200 -1.305800 23.071786 -10.591119 8.174893 -1.158010 -6.396802 14.849304 -0.770974 -14.251381 -22.968170 -0.054100 -1.500300 4.126600 0.575961 0.879772 0.877016 2.973173 0.351009 7.079874 4.842745 3.962479 26.707850 1.012200 1.179200 20.909100 -80.908164 -4.377705 32.192198 9.551886 -23.448824 -2.475190 -0.032756 0.079831 -7.186615 -7.125000 0.000000 0.000000 66.711083 3.219445 18.584330 -11.764569 23.624439 -3.549808 1.267560 -0.159189 -5.987535 7.125000 0.000000 0.000000 
